<?xml version="1.0" standalone="no"?>
<!DOCTYPE svg PUBLIC "-//W3C//DTD SVG 20010904//EN" "http://www.w3.org/TR/2001/REC-SVG-20010904/DTD/svg10.dtd">
<svg version="1.0" xmlns="http://www.w3.org/2000/svg" width="770.000000pt" height="420.000000pt"
  viewBox="0 0 770.000000 420.000000" preserveAspectRatio="xMidYMid meet">

  <g transform="translate(0.000000,420.000000) scale(0.100000,-0.100000)" fill="#1b45bd" stroke="none">
    <path d="M3520 3302 l0 -190 233 -4 232 -3 65 -33 c156 -77 227 -198 218 -371
-6 -109 -31 -165 -113 -247 -96 -97 -130 -107 -407 -112 l-228 -4 0 -190 0
-190 233 4 c257 5 298 12 422 73 155 75 280 199 354 349 51 103 70 176 78 296
21 353 -211 679 -557 780 -64 19 -108 23 -302 27 l-228 6 0 -191z" />
    <path d="M3520 2720 l0 -210 208 2 207 3 3 208 2 207 -210 0 -210 0 0 -210z
m360 0 l0 -151 -147 3 -148 3 -3 148 -3 147 151 0 150 0 0 -150z" />
    <path d="M2344 1489 c-63 -15 -145 -69 -186 -123 -106 -141 -84 -383 45 -489
134 -110 367 -100 478 20 159 173 108 476 -96 569 -60 28 -177 39 -241 23z
m191 -108 c90 -40 141 -142 133 -261 -6 -84 -37 -143 -96 -185 -39 -27 -52
-30 -130 -33 -76 -2 -92 0 -127 20 -166 97 -161 383 9 459 55 24 158 24 211 0z" />
    <path d="M5183 1486 c-168 -41 -276 -218 -244 -402 21 -119 81 -203 179 -251
51 -25 68 -28 157 -28 93 0 105 2 166 32 71 35 117 83 152 161 25 56 30 200 9
273 -31 106 -136 199 -246 218 -77 13 -106 13 -173 -3z m178 -98 c93 -32 153
-124 153 -237 0 -80 -16 -131 -57 -177 -51 -59 -97 -76 -193 -72 -72 3 -87 7
-125 33 -26 18 -53 50 -68 80 -22 42 -26 63 -26 141 0 83 2 94 30 139 55 89
180 130 286 93z" />
    <path d="M1429 1170 c-1 -176 -2 -328 -3 -337 -1 -17 13 -18 164 -18 195 1
243 13 317 79 170 153 136 453 -63 555 -57 30 -137 41 -286 41 l-128 0 -1
-320z m342 202 c42 -17 101 -73 120 -117 38 -84 17 -218 -42 -274 -53 -50 -97
-64 -209 -65 l-105 -1 -3 225 c-1 123 0 231 3 239 4 11 25 13 108 8 56 -3 114
-10 128 -15z" />
    <path d="M2895 1482 c-3 -3 -5 -155 -5 -339 l0 -333 50 0 50 0 0 255 c0 140 3
255 8 255 4 0 56 -70 115 -155 60 -85 113 -155 117 -155 10 0 96 112 180 233
30 42 57 77 62 77 4 0 7 -114 7 -252 l-1 -253 51 -3 51 -3 -2 338 -3 337 -50
3 c-31 2 -57 -2 -66 -9 -9 -7 -60 -76 -114 -153 -54 -77 -101 -144 -105 -148
-4 -5 -38 36 -76 90 -38 54 -80 114 -94 134 -60 85 -56 82 -114 84 -31 1 -58
0 -61 -3z" />
    <path d="M3734 1477 c-2 -7 -3 -159 -2 -338 l3 -324 53 -3 52 -3 0 340 0 341
-50 0 c-33 0 -52 -5 -56 -13z" />
    <path d="M3995 1477 c-3 -7 -4 -158 -3 -337 l3 -325 29 -3 c15 -2 39 -1 52 2
l24 6 0 233 0 232 23 -25 c17 -19 245 -301 353 -436 6 -8 28 -14 48 -14 l36 0
0 341 0 340 -47 -3 -48 -3 -5 -239 -5 -240 -193 242 c-186 232 -195 242 -228
242 -19 0 -37 -6 -39 -13z" />
    <path d="M4720 1150 l0 -341 48 3 47 3 0 335 0 335 -47 3 -48 3 0 -341z" />
    <path d="M5735 1477 c-3 -7 -4 -158 -3 -337 l3 -325 50 0 50 0 5 235 5 235 40
-50 c22 -27 45 -56 52 -65 7 -8 55 -69 109 -135 53 -66 110 -138 128 -159 49
-61 55 -66 92 -66 l34 0 -2 338 -3 337 -45 0 -45 0 -5 -240 -5 -240 -193 243
c-186 234 -193 242 -227 242 -20 0 -38 -6 -40 -13z" />
  </g>
</svg>