<svg id="svg4894" xmlns="http://www.w3.org/2000/svg" viewBox="0 0 82.14 41.31"><defs><style>.cls-1,.cls-2{fill:#253e7b;}.cls-2{fill-rule:evenodd;}</style></defs><g id="layer1"><g id="g6499"><g id="g5292"><path id="path5294" class="cls-1" d="M64.23,11.26a7.66,7.66,0,1,1,7.67,7.68,7.66,7.66,0,0,1-7.67-7.68m1.81,0A5.86,5.86,0,1,0,71.9,5.4,5.83,5.83,0,0,0,66,11.26" transform="translate(-0.5 -0.5)"/></g><g id="g5296"><path id="path5298" class="cls-2" d="M30.62,19.72a2,2,0,0,0,1.27,1.86H24.44a2,2,0,0,0,1.29-1.86v-7.3L20.18,2.76a6.44,6.44,0,0,0-.78-1.17,6.1,6.1,0,0,0-.76-.66h6.3L28.15,6.5,31.39.93H37.7a8.37,8.37,0,0,0-.79.66,6.4,6.4,0,0,0-.77,1.17l-5.52,9.66v7.3ZM22.23,2.48l5.29,9.3V20h1.29V11.78l5.28-9.3H32.54l-4.39,7.77L23.78,2.48Z" transform="translate(-0.5 -0.5)"/></g><g id="g5300"><path id="path5302" class="cls-2" d="M40.39,2.87V2.8A2,2,0,0,0,39.11.93h6.16L53.54,12.8V2.8A2,2,0,0,0,52.25.93h7.56a2,2,0,0,0-1.27,1.88V21.58h-5L45.27,9.45V19.72a2,2,0,0,0,1.28,1.86H39.11a2,2,0,0,0,1.28-1.86V2.87ZM55.32,18.74,44.12,2.48H42.19V20h1.28V3.78L54.67,20H56.6V2.48H55.32Z" transform="translate(-0.5 -0.5)"/></g><g id="g5304"><path id="path5306" class="cls-1" d="M61.14,11.26A10.75,10.75,0,1,1,71.9,22,10.75,10.75,0,0,1,61.14,11.26m1.82,0a8.95,8.95,0,1,0,8.94-9,8.94,8.94,0,0,0-8.94,9" transform="translate(-0.5 -0.5)"/></g><g id="g5308"><path id="path5310" class="cls-2" d="M1.76,19.65V2.8A2,2,0,0,0,.5.93H8.86a10.33,10.33,0,0,1,0,20.65H.5a2,2,0,0,0,1.26-1.86ZM3.57,2.76v17H8.86a8.52,8.52,0,0,0,0-17Z" transform="translate(-0.5 -0.5)"/></g><g id="g5312"><path id="path5314" class="cls-2" d="M4.86,18.55V4H8.79a7.29,7.29,0,0,1,0,14.58Zm4.05-1.8a5.48,5.48,0,0,0,0-11H6.66v11Z" transform="translate(-0.5 -0.5)"/></g><g id="g5316"><path id="path5318" class="cls-2" d="M8.09,28.41a3.73,3.73,0,0,1,1.85,1.34,4.69,4.69,0,0,1,.75,1.7,8.46,8.46,0,0,1,.22,1.74A6.72,6.72,0,0,1,10,36.74a3.93,3.93,0,0,1-3.61,1.94H1.78V28.19H6.43a6.18,6.18,0,0,1,1.66.22M4,30v6.85H6a2.27,2.27,0,0,0,2.24-1.52,5.34,5.34,0,0,0,.34-2,4.72,4.72,0,0,0-.53-2.47A2.2,2.2,0,0,0,6,30Z" transform="translate(-0.5 -0.5)"/></g><g id="g5320"><path id="path5322" class="cls-2" d="M12.74,40.19H13a3.57,3.57,0,0,0,.58,0,.84.84,0,0,0,.46-.17,1,1,0,0,0,.35-.5.89.89,0,0,0,.12-.48l-2.92-8.08H14l1.7,5.72,1.66-5.72h2.21L16.8,38.55a10.3,10.3,0,0,1-1.25,2.73,2.4,2.4,0,0,1-1.85.53h-.43l-.53,0Z" transform="translate(-0.5 -0.5)"/></g><g id="g5324"><path id="path5326" class="cls-2" d="M27.19,31.38A2.48,2.48,0,0,1,28,33.46v5.22H25.85V34a1.9,1.9,0,0,0-.17-.95,1.19,1.19,0,0,0-1.16-.58,1.45,1.45,0,0,0-1.46.87,2.71,2.71,0,0,0-.21,1.18v4.19H20.78V31h2v1.13a3.8,3.8,0,0,1,.76-.86,2.63,2.63,0,0,1,1.64-.47,3,3,0,0,1,2,.63" transform="translate(-0.5 -0.5)"/></g><g id="g5328"><path id="path5330" class="cls-2" d="M36.57,37.74A3.75,3.75,0,0,1,33.5,39a3.71,3.71,0,0,1-3.06-1.21,4.38,4.38,0,0,1-1-2.92,4.43,4.43,0,0,1,1-2.91,3.66,3.66,0,0,1,3.06-1.22,3.69,3.69,0,0,1,3.07,1.22,4.58,4.58,0,0,1,1,2.91,4.52,4.52,0,0,1-1,2.92M34.9,36.62a2.88,2.88,0,0,0,.48-1.8A2.92,2.92,0,0,0,34.9,33a1.71,1.71,0,0,0-1.42-.61,1.73,1.73,0,0,0-1.41.61,3,3,0,0,0-.48,1.8,2.94,2.94,0,0,0,.48,1.8,1.74,1.74,0,0,0,1.41.63,1.72,1.72,0,0,0,1.42-.63" transform="translate(-0.5 -0.5)"/></g><g id="g5332"><path id="path5334" class="cls-2" d="M42.15,28.19H44.5l4.32,7.34V28.19h2.07V38.68H48.65l-4.41-7.45v7.45H42.15Z" transform="translate(-0.5 -0.5)"/></g><g id="g5336"><path id="path5338" class="cls-2" d="M59.47,37.74A3.73,3.73,0,0,1,56.41,39a3.75,3.75,0,0,1-3.06-1.21,4.38,4.38,0,0,1-1-2.92,4.43,4.43,0,0,1,1-2.91,3.7,3.7,0,0,1,3.06-1.22,3.67,3.67,0,0,1,3.06,1.22,4.33,4.33,0,0,1,1,2.91,4.29,4.29,0,0,1-1,2.92m-1.66-1.12a2.88,2.88,0,0,0,.48-1.8,2.92,2.92,0,0,0-.48-1.8,1.67,1.67,0,0,0-1.4-.61A1.72,1.72,0,0,0,55,33a2.92,2.92,0,0,0-.49,1.8,2.88,2.88,0,0,0,.49,1.8,1.73,1.73,0,0,0,1.41.63,1.68,1.68,0,0,0,1.4-.63" transform="translate(-0.5 -0.5)"/></g><g id="g5340"><path id="path5342" class="cls-2" d="M67,36.61a2.88,2.88,0,0,0,.46-1.69,3.7,3.7,0,0,0-.22-1.38,1.56,1.56,0,0,0-1.53-1,1.54,1.54,0,0,0-1.57,1,3.63,3.63,0,0,0-.23,1.39,2.84,2.84,0,0,0,.45,1.64,1.63,1.63,0,0,0,1.39.67A1.51,1.51,0,0,0,67,36.61m1.74-4.76a4.3,4.3,0,0,1,.89,2.86,4.84,4.84,0,0,1-.87,3,2.86,2.86,0,0,1-2.46,1.19,3,3,0,0,1-1.58-.39,3.23,3.23,0,0,1-.78-.79v1h-2V28.22H64v3.72a3.62,3.62,0,0,1,.89-.83,2.6,2.6,0,0,1,1.42-.36,3,3,0,0,1,2.46,1.1" transform="translate(-0.5 -0.5)"/></g><g id="g5344"><path id="path5346" class="cls-2" d="M76.08,31.08a3.07,3.07,0,0,1,1.31,1.15,3.55,3.55,0,0,1,.6,1.61,11.73,11.73,0,0,1,.07,1.53H72.6A2,2,0,0,0,73.35,37a1.78,1.78,0,0,0,1,.28,1.46,1.46,0,0,0,1-.36,1.36,1.36,0,0,0,.4-.52H78a2.52,2.52,0,0,1-.72,1.4,3.73,3.73,0,0,1-2.87,1.13,4.05,4.05,0,0,1-2.69-1A3.71,3.71,0,0,1,70.5,34.9a4.25,4.25,0,0,1,1-3.1,3.65,3.65,0,0,1,2.73-1.09,4.48,4.48,0,0,1,1.8.37m-2.93,1.76a2.2,2.2,0,0,0-.49,1.2h3.23a1.68,1.68,0,0,0-.49-1.22,1.55,1.55,0,0,0-1.12-.41,1.4,1.4,0,0,0-1.13.43" transform="translate(-0.5 -0.5)"/></g><path id="path5348" class="cls-2" d="M81.58,38.68H79.5V28.19h2.08Z" transform="translate(-0.5 -0.5)"/></g></g></svg>