<svg id="svg2" xmlns="http://www.w3.org/2000/svg" xmlns:xlink="http://www.w3.org/1999/xlink" viewBox="0 0 76.05 71.58"><defs><style>.cls-1,.cls-5{fill-rule:evenodd;}.cls-1{fill:url(#Degradado_sin_nombre);}.cls-2{fill:url(#Degradado_sin_nombre_2);}.cls-3{fill:url(#Degradado_sin_nombre_3);}.cls-4{fill:url(#Degradado_sin_nombre_4);}.cls-5{stroke:#000;stroke-width:0.2px;fill:url(#Degradado_sin_nombre_5);}</style><linearGradient id="Degradado_sin_nombre" x1="8.71" y1="87.81" x2="84.01" y2="116.03" gradientTransform="matrix(1, 0, 0, -1, 0, 126.69)" gradientUnits="userSpaceOnUse"><stop offset="0" stop-color="#3e4142"/><stop offset="1" stop-color="#3e4142" stop-opacity="0"/></linearGradient><linearGradient id="Degradado_sin_nombre_2" x1="49.14" y1="97.52" x2="36.1" y2="116.59" gradientTransform="matrix(1.08, 0, 0, -1.08, 8.17, 140.18)" gradientUnits="userSpaceOnUse"><stop offset="0" stop-color="#8c2224"/><stop offset="0.44" stop-color="#ca2224"/><stop offset="1" stop-color="#ca2224" stop-opacity="0.31"/></linearGradient><linearGradient id="Degradado_sin_nombre_3" x1="76.23" y1="97.52" x2="63.19" y2="116.59" gradientTransform="matrix(1.08, 0, 0, -1.08, -34.84, 140.18)" xlink:href="#Degradado_sin_nombre_2"/><linearGradient id="Degradado_sin_nombre_4" x1="103.3" y1="97.52" x2="90.27" y2="116.59" gradientTransform="matrix(1.08, 0, 0, -1.08, -77.83, 140.18)" xlink:href="#Degradado_sin_nombre_2"/><linearGradient id="Degradado_sin_nombre_5" x1="85.31" y1="98.47" x2="15.96" y2="100.72" xlink:href="#Degradado_sin_nombre"/></defs><path id="path3005" class="cls-1" d="M41,4.08c-15.14,0-27.41,10.16-27.41,22.7S25.86,49.48,41,49.48s27.41-10.16,27.41-22.7S56.14,4.08,41,4.08Zm0,2c13.8,0,25,9.27,25,20.7s-11.2,20.7-25,20.7-25-9.27-25-20.7S27.2,6.08,41,6.08Z" transform="translate(-2.95 -3.98)"/><g id="g3004"><path id="path2991" class="cls-2" d="M48.24,26.74l6.94,12,6.94-12-6.94-12Z" transform="translate(-2.95 -3.98)"/><g id="use3796"><path id="path2991-2" data-name="path2991" class="cls-3" d="M34.37,26.74l6.94,12,6.94-12-6.94-12Z" transform="translate(-2.95 -3.98)"/></g><g id="use3798"><g id="use3796-2" data-name="use3796"><path id="path2991-3" data-name="path2991" class="cls-4" d="M20.5,26.74l6.94,12,6.94-12-6.94-12Z" transform="translate(-2.95 -3.98)"/></g></g></g><path id="path3808" class="cls-5" d="M41,4.08c-15.14,0-27.41,10.16-27.41,22.7S25.86,49.48,41,49.48s27.41-10.16,27.41-22.7S56.14,4.08,41,4.08Zm0,2c13.8,0,25,9.27,25,20.7s-11.2,20.7-25,20.7-25-9.27-25-20.7S27.2,6.08,41,6.08Z" transform="translate(-2.95 -3.98)"/><path d="M27,61.22H34V58.63H27V56h7.58V53.45h-8c-1.71,0-2.2.86-2.2,2.17V66.4H34.82V63.81H27ZM52,59.62V56h4.43a1.7,1.7,0,0,1,1.93,1.73,1.72,1.72,0,0,1-1.94,1.85Zm9-1.85c0-2.38-2-4.32-4.88-4.32H51.45a1.91,1.91,0,0,0-2,2.17V66.4H52V62.09h2.65l3.16,4.31H61.3l-3.61-4.51A4.21,4.21,0,0,0,61,57.77m-42.21-4.3h-.41A2.53,2.53,0,0,0,15.91,55l-3.56,7.37L8.78,55a2.52,2.52,0,0,0-2.55-1.51H5.87A1.77,1.77,0,0,0,4,55.4v11H6.74V56.62l3.18,6.64a2.17,2.17,0,0,0,2.32,1.56h.08a2.27,2.27,0,0,0,2.42-1.5L18,56.62V66.4h2.72v-11a1.78,1.78,0,0,0-1.88-1.93M36.3,55.61V56h4.26V66.41h3V56h3.78V53.45h-9a1.91,1.91,0,0,0-2,2.16M70.64,64.2c-3.1,0-4.51-1.93-4.51-4.33a4.43,4.43,0,0,1,8.86,0,4.09,4.09,0,0,1-4.35,4.33m0-11.05c-4.58,0-7.61,3-7.61,6.72s2.81,6.72,7.61,6.72c4.4,0,7.39-3,7.39-6.72s-3.18-6.72-7.39-6.72" transform="translate(-2.95 -3.98)"/><path d="M45.36,70.61v-.2a1.12,1.12,0,0,1,1.2-1h5.21v1.21h-2.5v4.8H47.86v-4.8Z" transform="translate(-2.95 -3.98)"/><path d="M6.55,75.41H3v-5a1.12,1.12,0,0,1,1.2-1h2.4c2,0,3.61,1.35,3.61,3s-1.62,3-3.61,3m-2.4-1.2H6.79a1.83,1.83,0,1,0,0-3.6H4.15v3.6Z" transform="translate(-2.95 -3.98)"/><path d="M12.57,74.21H17v1.2h-5.6v-5a1.12,1.12,0,0,1,1.2-1H17v1.21h-4.4v1.2h4V73h-4Z" transform="translate(-2.95 -3.98)"/><rect x="50.12" y="65.42" width="1.2" height="6.01"/><path d="M67.14,70.6a1.83,1.83,0,1,0,0,3.61H69V73h-1.6V71.8h2.8v2.61a1.12,1.12,0,0,1-1.2,1H67.38a3.35,3.35,0,0,1-3.6-3c0-1.66,1.61-3,3.6-3h2.81v1.2Z" transform="translate(-2.95 -3.98)"/><path d="M42.92,74.3V69.4h1.2v5a1.12,1.12,0,0,1-1.2,1,1.32,1.32,0,0,1-1.05-.51L38.5,70.5v4.91H37.3v-5a1.12,1.12,0,0,1,1.2-1,1.33,1.33,0,0,1,1.06.51Z" transform="translate(-2.95 -3.98)"/><path d="M33.37,73l-1.09-2.54L31.2,73Zm-1.09-3.6a1.21,1.21,0,0,1,1.14.66l2.27,5.35h-1.3l-.51-1.2H30.69l-.5,1.2H28.88l2.27-5.35a1.22,1.22,0,0,1,1.13-.66" transform="translate(-2.95 -3.98)"/><path d="M60.51,73l-1.09-2.54L58.34,73Zm-1.09-3.6a1.21,1.21,0,0,1,1.14.66l2.27,5.35h-1.3L61,74.21H57.83l-.51,1.2H56l2.27-5.35a1.2,1.2,0,0,1,1.13-.66" transform="translate(-2.95 -3.98)"/><path d="M25.61,71.8a1.83,1.83,0,1,1,0,3.61H21.55v-1.2h4.3a.61.61,0,1,0,0-1.21H23.53a1.83,1.83,0,1,1,0-3.6h3.63v1.2H23.28a.67.67,0,0,0-.72.6.67.67,0,0,0,.72.6Z" transform="translate(-2.95 -3.98)"/><path d="M79,72.43c0-1.73-1.68-3.13-3.75-3.13s-3.76,1.4-3.76,3.13,1.68,3.13,3.76,3.13S79,74.16,79,72.43m-1.21,0s0,.06-.05.1h0a2.61,2.61,0,0,1-5.14,0s0,0,0-.09h0a2.61,2.61,0,0,1,5.13,0" transform="translate(-2.95 -3.98)"/></svg>