<?xml version="1.0" encoding="utf-8"?>
<!-- Generator: Adobe Illustrator 19.2.1, SVG Export Plug-In . SVG Version: 6.00 Build 0)  -->
<svg version="1.1" id="layer" xmlns="http://www.w3.org/2000/svg" xmlns:xlink="http://www.w3.org/1999/xlink" x="0px" y="0px"
	 viewBox="0 0 652 652" style="enable-background:new 0 0 652 652;" xml:space="preserve">
<style type="text/css">
	.st0{fill:#E32617;}
	.st1{fill:#1C3075;}
</style>
<path class="st0" d="M26.7,338.6v56.3h14.7l-0.7-29.3l15.8,29.3h14.2v-56.3H55.9l0.7,29.3l-15.8-29.3H26.7z M97.7,383.1
	c-3.8,0-7.1-1.2-7.1-7.6v-36.9H75.9v38c0,15.6,11.8,19.4,21.8,19.4c10.1,0,21.8-3.8,21.8-19.4v-38h-14.7v36.9
	C104.8,381.9,101.5,383.1,97.7,383.1 M160.5,359.5h-21v-7.9h23.1v-13h-37.8v56.3h37.8v-13h-23.1v-9.5h21V359.5z M197.5,395.2
	l15.2-56.6h-15.8l-7.9,38.7l-7.9-38.7h-15.8l15.2,56.6H197.5z M213.7,366.7c0,17.8,4.2,29.3,22.8,29.3c18.6,0,22.8-11.6,22.8-29.3
	c0-17.8-4.2-29.3-22.8-29.3C217.9,337.4,213.7,349,213.7,366.7 M244.4,366.7c0,12.5-2,16.3-7.9,16.3c-5.9,0-7.9-3.8-7.9-16.3
	s2-16.3,7.9-16.3C242.4,350.5,244.4,354.2,244.4,366.7"/>
<path class="st1" d="M280.2,375.7h5.3c15.7,0,21.1-8.9,21.1-18.8c0-9.7-5.4-18.8-21.1-18.8h-20v56.3h14.7V375.7z M280.2,351.1h5.4
	c4.4,0,5.4,3.8,5.4,5.9c0,2.3-1,5.9-5.4,5.9h-5.4V351.1z M331.5,382.7c-3.8,0-7.1-1.2-7.1-7.6v-36.9h-14.7v38
	c0,15.6,11.8,19.4,21.8,19.4c10.1,0,21.8-3.8,21.8-19.4v-38h-14.7v36.9C338.6,381.5,335.3,382.7,331.5,382.7 M377.4,394.5
	c19.7,0,24.5-12.2,24.5-28.1c0-15.9-4.7-28.1-24.5-28.1h-19.2v56.3H377.4z M372.9,351.1h4.6c7.3,0,9.3,5.3,9.3,15.3
	c0,10.1-2,15.3-9.3,15.3h-4.6V351.1z M431.2,384.3l2.1,10.2h15.5L435,337.9h-19.4l-13.8,56.6h15.5l2.1-10.2H431.2z M429,373.1h-7.4
	l3.7-21.5L429,373.1z M494.7,394.5v-56.3H480v20.9h-13.5v-20.9h-14.7v56.3h14.7v-22.4H480v22.4H494.7z M521.4,382.7
	c-3.8,0-7.1-1.2-7.1-7.6v-36.9h-14.7v38c0,15.6,11.8,19.4,21.8,19.4c10.1,0,21.8-3.8,21.8-19.4v-38h-14.7v36.9
	C528.5,381.5,525.2,382.7,521.4,382.7 M583.9,359.1h-21v-7.9H586v-13h-37.8v56.3H586v-13h-23.1v-9.5h21V359.1z M605.4,338.2h-14.7
	v56.3h35.9v-13h-21.2V338.2z"/>
<path class="st1" d="M100.7,307.6c0,0-1.7,0-1.7,1.7v6.9c0,0,0,1.7,1.7,1.7h6.9c0,0,1.7,0,1.7-1.7v-6.9c0,0,0-1.7-1.7-1.7H100.7z"/>
<path class="st1" d="M209.4,300.8c0,0-1.7,0-1.7,1.7v6.9c0,0,0,1.7,1.7,1.7h6.9c0,0,1.7,0,1.7-1.7v-6.9c0,0,0-1.7-1.7-1.7H209.4z"/>
<path class="st1" d="M137,307.6c0,0-1.7,0-1.7,1.7v6.9c0,0,0,1.7,1.7,1.7h6.9c0,0,1.7,0,1.7-1.7v-6.9c0,0,0-1.7-1.7-1.7H137z"/>
<path class="st1" d="M28.3,307.6c0,0-1.7,0-1.7,1.7v6.9c0,0,0,1.7,1.7,1.7h6.9c0,0,1.7,0,1.7-1.7v-6.9c0,0,0-1.7-1.7-1.7H28.3z"/>
<path class="st1" d="M245.6,297.3c0,0-1.7,0-1.7,1.7v6.9c0,0,0,1.7,1.7,1.7h6.9c0,0,1.7,0,1.7-1.7v-6.9c0,0,0-1.7-1.7-1.7H245.6z"/>
<path class="st1" d="M173.2,304.2c0,0-1.7,0-1.7,1.7v6.9c0,0,0,1.7,1.7,1.7h6.9c0,0,1.7,0,1.7-1.7v-6.9c0,0,0-1.7-1.7-1.7H173.2z"/>
<path class="st1" d="M64.5,307.6c0,0-1.7,0-1.7,1.7v6.9c0,0,0,1.7,1.7,1.7h6.9c0,0,1.7,0,1.7-1.7v-6.9c0,0,0-1.7-1.7-1.7H64.5z"/>
<path class="st1" d="M409.3,292c0,8.6-6.9,15.5-15.5,15.5c-8.6,0-15.5-6.9-15.5-15.5s6.9-15.5,15.5-15.5
	C402.4,276.5,409.3,283.5,409.3,292"/>
<path class="st0" d="M436.5,279.8l24.3,21.9c6.2,5.6,14.5,7.3,22.1,4.8l142.9-48.1c1.3-0.4,0.9-2.6-0.4-2.5l-186.8,16.8
	C435.2,272.9,433.9,277.5,436.5,279.8"/>
<path class="st1" d="M295.1,286.9H286c-3.2,0-5.8,2.6-5.8,5.8v9.2c0,3.2,2.6,5.8,5.8,5.8h9.2c3.2,0,5.8-2.6,5.8-5.8v-9.2
	C300.9,289.5,298.3,286.9,295.1,286.9"/>
<path class="st1" d="M344,281.7h-8.7c-4.8,0-8.6,3.9-8.6,8.6v8.7c0,4.8,3.9,8.6,8.6,8.6h8.7c4.8,0,8.6-3.9,8.6-8.6v-8.7
	C352.6,285.6,348.7,281.7,344,281.7"/>
</svg>
